<?xml version="1.0" encoding="utf-8"?>
<!-- Generator: Adobe Illustrator 16.0.0, SVG Export Plug-In . SVG Version: 6.00 Build 0)  -->
<!DOCTYPE svg PUBLIC "-//W3C//DTD SVG 1.1//EN" "http://www.w3.org/Graphics/SVG/1.1/DTD/svg11.dtd">
<svg version="1.1" id="Layer_1" xmlns="http://www.w3.org/2000/svg" xmlns:xlink="http://www.w3.org/1999/xlink" x="0px" y="0px"
	 width="414.539px" height="43.044px" viewBox="0 0 414.539 43.044" enable-background="new 0 0 414.539 43.044"
	 xml:space="preserve">
<g>
	<g>
		<path fill="#004785" d="M5.775,6.656h14.671v0.776h-0.734c-1.104,0-1.862,0.115-2.274,0.346c-0.412,0.23-0.706,0.548-0.88,0.954
			c-0.175,0.405-0.262,1.418-0.262,3.039v13.917c0,2.543,0.192,4.227,0.577,5.051c0.384,0.824,1.016,1.509,1.897,2.054
			c0.88,0.545,1.991,0.817,3.332,0.817c1.537,0,2.847-0.346,3.93-1.037c1.083-0.692,1.894-1.646,2.432-2.861
			c0.538-1.216,0.807-3.333,0.807-6.351V11.77c0-1.271-0.133-2.18-0.398-2.725c-0.266-0.545-0.601-0.922-1.006-1.132
			c-0.629-0.321-1.517-0.482-2.662-0.482V6.656h9.83v0.776h-0.587c-0.796,0-1.46,0.161-1.991,0.482
			c-0.531,0.322-0.916,0.804-1.153,1.446c-0.182,0.447-0.272,1.25-0.272,2.41v10.793c0,3.34-0.22,5.75-0.66,7.231
			c-0.44,1.481-1.513,2.844-3.217,4.087c-1.705,1.244-4.031,1.866-6.979,1.866c-2.459,0-4.36-0.329-5.701-0.985
			c-1.831-0.894-3.123-2.04-3.878-3.438c-0.754-1.397-1.131-3.276-1.131-5.638V11.77c0-1.635-0.091-2.651-0.272-3.05
			C9.01,8.322,8.695,8.004,8.249,7.767C7.801,7.53,6.977,7.417,5.775,7.432V6.656z"/>
		<path fill="#004785" d="M41.133,28.621c0.978,0,1.806,0.343,2.484,1.027c0.678,0.685,1.016,1.509,1.016,2.473
			c0,0.964-0.343,1.785-1.027,2.462c-0.685,0.678-1.509,1.017-2.473,1.017c-0.964,0-1.785-0.339-2.462-1.017
			c-0.678-0.678-1.017-1.499-1.017-2.462c0-0.964,0.338-1.789,1.017-2.473C39.348,28.963,40.168,28.621,41.133,28.621z"/>
		<path fill="#004785" d="M66.661,6.006l0.23,9.473h-0.859c-0.406-2.375-1.401-4.286-2.987-5.732
			c-1.585-1.446-3.301-2.169-5.145-2.169c-1.425,0-2.554,0.381-3.385,1.142c-0.831,0.762-1.247,1.639-1.247,2.631
			c0,0.628,0.146,1.188,0.44,1.676c0.405,0.657,1.055,1.307,1.949,1.949c0.656,0.461,2.172,1.278,4.548,2.452
			c3.325,1.635,5.568,3.179,6.728,4.632c1.146,1.454,1.719,3.116,1.719,4.988c0,2.375-0.926,4.419-2.777,6.13
			c-1.852,1.712-4.202,2.568-7.053,2.568c-0.894,0-1.739-0.091-2.536-0.273c-0.796-0.182-1.795-0.524-2.997-1.027
			c-0.67-0.279-1.223-0.419-1.655-0.419c-0.364,0-0.748,0.14-1.153,0.419c-0.405,0.28-0.733,0.706-0.985,1.279H48.72V24.995h0.775
			c0.615,3.018,1.799,5.32,3.552,6.906c1.754,1.586,3.644,2.379,5.67,2.379c1.564,0,2.812-0.426,3.741-1.279
			c0.929-0.852,1.394-1.844,1.394-2.976c0-0.67-0.178-1.32-0.535-1.949c-0.356-0.629-0.897-1.226-1.624-1.792
			c-0.727-0.566-2.012-1.302-3.856-2.211c-2.585-1.271-4.443-2.354-5.575-3.249c-1.132-0.894-2.002-1.894-2.61-2.997
			s-0.912-2.319-0.912-3.647c0-2.264,0.832-4.192,2.495-5.785c1.663-1.593,3.759-2.389,6.288-2.389c0.922,0,1.816,0.112,2.683,0.335
			c0.657,0.167,1.457,0.479,2.4,0.933c0.943,0.454,1.604,0.681,1.98,0.681c0.363,0,0.65-0.112,0.859-0.335
			c0.21-0.223,0.405-0.761,0.587-1.614H66.661z"/>
		<path fill="#004785" d="M75.736,28.621c0.978,0,1.806,0.343,2.483,1.027s1.017,1.509,1.017,2.473c0,0.964-0.343,1.785-1.027,2.462
			S76.7,35.6,75.736,35.6c-0.964,0-1.786-0.339-2.463-1.017c-0.678-0.678-1.017-1.499-1.017-2.462c0-0.964,0.338-1.789,1.017-2.473
			C73.95,28.963,74.771,28.621,75.736,28.621z"/>
		<path fill="#004785" d="M112.288,25.393L120,6.656h11.569v0.776h-0.922c-0.839,0-1.509,0.146-2.012,0.44
			c-0.35,0.196-0.629,0.524-0.838,0.985c-0.154,0.335-0.23,1.209-0.23,2.62v18.737c0,1.453,0.076,2.361,0.23,2.725
			c0.154,0.363,0.468,0.681,0.943,0.953c0.474,0.273,1.11,0.409,1.907,0.409h0.922v0.775h-14.839v-0.775h0.922
			c0.839,0,1.509-0.147,2.013-0.44c0.349-0.195,0.628-0.531,0.838-1.006c0.154-0.335,0.23-1.216,0.23-2.641V9.15l-10.898,25.926
			h-0.503L98.266,9.339v20.016c0,1.397,0.035,2.256,0.105,2.578c0.182,0.699,0.576,1.268,1.184,1.708
			c0.607,0.44,1.562,0.66,2.861,0.66v0.775h-9.725v-0.775h0.293c0.629,0.014,1.216-0.087,1.761-0.304
			c0.545-0.216,0.957-0.506,1.237-0.87c0.279-0.363,0.496-0.873,0.649-1.53c0.028-0.154,0.042-0.866,0.042-2.138V11.477
			c0-1.439-0.077-2.337-0.23-2.693c-0.154-0.356-0.468-0.67-0.943-0.943c-0.475-0.272-1.11-0.408-1.907-0.408h-0.901V6.656h11.611
			L112.288,25.393z"/>
		<path fill="#004785" d="M144.606,32.184c-2.389,2.11-4.534,3.165-6.435,3.165c-1.118,0-2.047-0.367-2.788-1.101
			c-0.74-0.733-1.11-1.652-1.11-2.756c0-1.495,0.643-2.84,1.928-4.035c1.285-1.194,4.087-2.784,8.404-4.768v-1.97
			c0-1.48-0.081-2.414-0.241-2.798c-0.161-0.384-0.465-0.72-0.912-1.006c-0.447-0.286-0.95-0.429-1.509-0.429
			c-0.909,0-1.656,0.202-2.243,0.608c-0.364,0.251-0.545,0.544-0.545,0.88c0,0.293,0.195,0.657,0.587,1.089
			c0.53,0.601,0.796,1.181,0.796,1.74c0,0.685-0.255,1.268-0.765,1.75c-0.511,0.482-1.178,0.723-2.002,0.723
			c-0.88,0-1.617-0.266-2.211-0.796c-0.594-0.531-0.891-1.153-0.891-1.866c0-1.006,0.398-1.966,1.195-2.881
			c0.796-0.915,1.907-1.617,3.333-2.106s2.906-0.733,4.443-0.733c1.858,0,3.329,0.395,4.412,1.184
			c1.083,0.79,1.785,1.645,2.106,2.567c0.195,0.587,0.293,1.935,0.293,4.045v7.608c0,0.895,0.035,1.457,0.105,1.687
			c0.07,0.231,0.175,0.402,0.314,0.514c0.14,0.112,0.301,0.168,0.482,0.168c0.363,0,0.733-0.258,1.111-0.776l0.628,0.503
			c-0.699,1.034-1.422,1.785-2.169,2.253c-0.748,0.468-1.597,0.702-2.546,0.702c-1.118,0-1.991-0.262-2.62-0.786
			S144.746,33.246,144.606,32.184z M144.606,30.654v-6.561c-1.691,0.993-2.948,2.054-3.772,3.186
			c-0.545,0.755-0.817,1.516-0.817,2.285c0,0.643,0.23,1.209,0.691,1.697c0.349,0.377,0.838,0.566,1.467,0.566
			C142.874,31.828,143.684,31.437,144.606,30.654z"/>
		<path fill="#004785" d="M163.385,15.479v4.444c1.299-2.026,2.438-3.371,3.416-4.035c0.978-0.664,1.921-0.995,2.83-0.995
			c0.782,0,1.408,0.241,1.876,0.723c0.468,0.482,0.702,1.163,0.702,2.043c0,0.937-0.228,1.663-0.682,2.18
			c-0.454,0.517-1.002,0.775-1.645,0.775c-0.741,0-1.383-0.237-1.928-0.712s-0.866-0.74-0.964-0.796
			c-0.14-0.084-0.301-0.125-0.482-0.125c-0.405,0-0.79,0.154-1.152,0.461c-0.573,0.475-1.006,1.153-1.3,2.033
			c-0.447,1.355-0.67,2.851-0.67,4.485v4.506l0.021,1.173c0,0.796,0.048,1.307,0.146,1.53c0.167,0.378,0.416,0.654,0.744,0.828
			c0.329,0.175,0.884,0.283,1.667,0.325v0.754h-10.584v-0.754c0.852-0.07,1.428-0.304,1.729-0.703
			c0.3-0.398,0.451-1.449,0.451-3.154V19.629c0-1.118-0.056-1.83-0.167-2.138c-0.14-0.391-0.343-0.677-0.608-0.859
			c-0.266-0.181-0.734-0.307-1.404-0.377v-0.775H163.385z"/>
		<path fill="#004785" d="M186.691,14.935l0.314,6.686h-0.713c-0.853-1.984-1.736-3.339-2.651-4.066
			c-0.916-0.727-1.827-1.09-2.735-1.09c-0.573,0-1.062,0.192-1.467,0.576c-0.405,0.384-0.607,0.828-0.607,1.331
			c0,0.377,0.139,0.741,0.419,1.09c0.447,0.573,1.697,1.554,3.752,2.944c2.054,1.391,3.405,2.571,4.055,3.542
			c0.65,0.972,0.975,2.058,0.975,3.259c0,1.09-0.272,2.159-0.817,3.207c-0.545,1.048-1.313,1.852-2.306,2.41
			c-0.992,0.559-2.089,0.838-3.291,0.838c-0.937,0-2.187-0.294-3.751-0.88c-0.419-0.154-0.706-0.23-0.859-0.23
			c-0.461,0-0.845,0.349-1.152,1.048h-0.692l-0.335-7.042h0.712c0.628,1.844,1.491,3.227,2.588,4.149
			c1.097,0.922,2.134,1.383,3.113,1.383c0.67,0,1.219-0.206,1.645-0.618c0.426-0.412,0.639-0.912,0.639-1.499
			c0-0.67-0.209-1.25-0.628-1.739c-0.419-0.489-1.355-1.23-2.809-2.222c-2.138-1.481-3.521-2.613-4.15-3.396
			c-0.922-1.146-1.383-2.41-1.383-3.793c0-1.509,0.521-2.875,1.562-4.098c1.041-1.223,2.546-1.833,4.517-1.833
			c1.062,0,2.089,0.258,3.081,0.775c0.377,0.209,0.684,0.314,0.922,0.314c0.251,0,0.454-0.052,0.607-0.157
			c0.154-0.105,0.398-0.402,0.733-0.891H186.691z"/>
		<path fill="#004785" d="M199.015,6.656v11.339c1.076-1.132,2.061-1.932,2.955-2.4c0.894-0.468,1.824-0.702,2.788-0.702
			c1.229,0,2.281,0.349,3.154,1.047c0.873,0.699,1.453,1.52,1.739,2.463c0.287,0.943,0.43,2.533,0.43,4.768v7.65
			c0,1.496,0.14,2.428,0.419,2.798c0.279,0.371,0.845,0.604,1.698,0.703v0.754h-9.935v-0.754c0.699-0.098,1.223-0.377,1.572-0.839
			c0.251-0.363,0.377-1.25,0.377-2.662v-8.739c0-1.621-0.063-2.638-0.188-3.05c-0.126-0.412-0.339-0.734-0.639-0.964
			c-0.301-0.231-0.64-0.346-1.017-0.346c-0.559,0-1.104,0.192-1.635,0.576c-0.531,0.385-1.104,1.059-1.719,2.023v10.5
			c0,1.397,0.105,2.271,0.314,2.62c0.265,0.475,0.81,0.769,1.635,0.88v0.754h-9.935v-0.754c0.824-0.084,1.411-0.35,1.761-0.797
			c0.237-0.307,0.356-1.208,0.356-2.704V10.911c0-1.481-0.136-2.403-0.409-2.767c-0.272-0.363-0.842-0.601-1.708-0.712V6.656
			H199.015z"/>
		<path fill="#004785" d="M225.695,32.184c-2.389,2.11-4.534,3.165-6.434,3.165c-1.118,0-2.047-0.367-2.788-1.101
			c-0.741-0.733-1.111-1.652-1.111-2.756c0-1.495,0.643-2.84,1.928-4.035c1.285-1.194,4.087-2.784,8.404-4.768v-1.97
			c0-1.48-0.081-2.414-0.241-2.798c-0.16-0.384-0.464-0.72-0.911-1.006c-0.447-0.286-0.95-0.429-1.509-0.429
			c-0.908,0-1.656,0.202-2.243,0.608c-0.363,0.251-0.544,0.544-0.544,0.88c0,0.293,0.195,0.657,0.586,1.089
			c0.531,0.601,0.797,1.181,0.797,1.74c0,0.685-0.255,1.268-0.765,1.75c-0.51,0.482-1.178,0.723-2.001,0.723
			c-0.881,0-1.618-0.266-2.211-0.796s-0.891-1.153-0.891-1.866c0-1.006,0.398-1.966,1.194-2.881s1.908-1.617,3.333-2.106
			c1.425-0.489,2.906-0.733,4.443-0.733c1.858,0,3.329,0.395,4.412,1.184c1.083,0.79,1.785,1.645,2.106,2.567
			c0.196,0.587,0.293,1.935,0.293,4.045v7.608c0,0.895,0.035,1.457,0.104,1.687c0.07,0.231,0.175,0.402,0.314,0.514
			c0.14,0.112,0.301,0.168,0.482,0.168c0.363,0,0.733-0.258,1.11-0.776l0.629,0.503c-0.699,1.034-1.421,1.785-2.169,2.253
			c-0.748,0.468-1.597,0.702-2.546,0.702c-1.118,0-1.991-0.262-2.62-0.786S225.835,33.246,225.695,32.184z M225.695,30.654v-6.561
			c-1.69,0.993-2.948,2.054-3.772,3.186c-0.545,0.755-0.817,1.516-0.817,2.285c0,0.643,0.231,1.209,0.692,1.697
			c0.349,0.377,0.838,0.566,1.467,0.566C223.963,31.828,224.773,31.437,225.695,30.654z"/>
		<path fill="#004785" d="M244.013,6.656V31.01c0,1.384,0.161,2.268,0.482,2.651c0.321,0.385,0.95,0.605,1.886,0.661v0.754h-10.584
			v-0.754c0.866-0.028,1.509-0.279,1.928-0.754c0.28-0.322,0.419-1.174,0.419-2.558V10.722c0-1.369-0.161-2.246-0.481-2.63
			c-0.322-0.384-0.944-0.604-1.866-0.66V6.656H244.013z"/>
		<path fill="#004785" d="M260.655,14.935l0.314,6.686h-0.713c-0.853-1.984-1.736-3.339-2.651-4.066s-1.827-1.09-2.735-1.09
			c-0.573,0-1.062,0.192-1.467,0.576c-0.405,0.384-0.607,0.828-0.607,1.331c0,0.377,0.139,0.741,0.419,1.09
			c0.447,0.573,1.697,1.554,3.751,2.944c2.054,1.391,3.406,2.571,4.056,3.542c0.65,0.972,0.975,2.058,0.975,3.259
			c0,1.09-0.272,2.159-0.817,3.207c-0.545,1.048-1.314,1.852-2.306,2.41c-0.992,0.559-2.089,0.838-3.291,0.838
			c-0.937,0-2.187-0.294-3.751-0.88c-0.419-0.154-0.706-0.23-0.859-0.23c-0.461,0-0.846,0.349-1.153,1.048h-0.692l-0.335-7.042
			h0.712c0.629,1.844,1.492,3.227,2.588,4.149c1.097,0.922,2.134,1.383,3.113,1.383c0.67,0,1.218-0.206,1.645-0.618
			c0.426-0.412,0.639-0.912,0.639-1.499c0-0.67-0.209-1.25-0.628-1.739c-0.419-0.489-1.356-1.23-2.809-2.222
			c-2.138-1.481-3.521-2.613-4.15-3.396c-0.922-1.146-1.383-2.41-1.383-3.793c0-1.509,0.521-2.875,1.562-4.098
			c1.041-1.223,2.546-1.833,4.517-1.833c1.062,0,2.088,0.258,3.081,0.775c0.377,0.209,0.684,0.314,0.922,0.314
			c0.251,0,0.454-0.052,0.607-0.157c0.153-0.105,0.398-0.402,0.733-0.891H260.655z"/>
		<path fill="#004785" d="M294.419,6.006l0.23,9.473h-0.859c-0.405-2.375-1.401-4.286-2.986-5.732
			c-1.586-1.446-3.301-2.169-5.145-2.169c-1.425,0-2.554,0.381-3.385,1.142c-0.832,0.762-1.247,1.639-1.247,2.631
			c0,0.628,0.146,1.188,0.44,1.676c0.405,0.657,1.055,1.307,1.949,1.949c0.657,0.461,2.173,1.278,4.548,2.452
			c3.325,1.635,5.567,3.179,6.728,4.632c1.146,1.454,1.719,3.116,1.719,4.988c0,2.375-0.926,4.419-2.777,6.13
			c-1.851,1.712-4.202,2.568-7.052,2.568c-0.895,0-1.74-0.091-2.537-0.273c-0.796-0.182-1.795-0.524-2.997-1.027
			c-0.67-0.279-1.223-0.419-1.656-0.419c-0.364,0-0.748,0.14-1.153,0.419c-0.405,0.28-0.733,0.706-0.985,1.279h-0.775V24.995h0.775
			c0.614,3.018,1.799,5.32,3.552,6.906c1.753,1.586,3.644,2.379,5.669,2.379c1.564,0,2.812-0.426,3.741-1.279
			c0.929-0.852,1.394-1.844,1.394-2.976c0-0.67-0.179-1.32-0.535-1.949c-0.356-0.629-0.898-1.226-1.624-1.792
			c-0.727-0.566-2.012-1.302-3.856-2.211c-2.585-1.271-4.443-2.354-5.575-3.249s-2.001-1.894-2.609-2.997s-0.912-2.319-0.912-3.647
			c0-2.264,0.831-4.192,2.495-5.785c1.663-1.593,3.758-2.389,6.287-2.389c0.922,0,1.816,0.112,2.683,0.335
			c0.656,0.167,1.457,0.479,2.4,0.933c0.943,0.454,1.603,0.681,1.98,0.681c0.363,0,0.649-0.112,0.859-0.335
			c0.21-0.223,0.405-0.761,0.587-1.614H294.419z"/>
		<path fill="#004785" d="M316.174,24.576h-10.752c0.126,2.599,0.817,4.653,2.075,6.162c0.964,1.16,2.124,1.739,3.479,1.739
			c0.838,0,1.6-0.234,2.284-0.702c0.685-0.468,1.418-1.31,2.201-2.525l0.713,0.461c-1.062,2.166-2.236,3.699-3.521,4.6
			c-1.285,0.901-2.773,1.352-4.464,1.352c-2.907,0-5.107-1.118-6.602-3.354c-1.202-1.803-1.802-4.038-1.802-6.707
			c0-3.27,0.883-5.872,2.651-7.808c1.767-1.935,3.838-2.902,6.214-2.902c1.984,0,3.706,0.814,5.167,2.441
			C315.276,18.962,316.062,21.376,316.174,24.576z M311.019,23.171c0-2.249-0.123-3.793-0.367-4.632s-0.625-1.474-1.142-1.907
			c-0.293-0.251-0.685-0.377-1.174-0.377c-0.727,0-1.32,0.356-1.781,1.069c-0.825,1.244-1.237,2.948-1.237,5.114v0.733H311.019z"/>
		<path fill="#004785" d="M326.758,15.479v4.444c1.3-2.026,2.438-3.371,3.417-4.035c0.978-0.664,1.921-0.995,2.83-0.995
			c0.782,0,1.407,0.241,1.876,0.723c0.467,0.482,0.702,1.163,0.702,2.043c0,0.937-0.228,1.663-0.681,2.18
			c-0.454,0.517-1.002,0.775-1.645,0.775c-0.741,0-1.384-0.237-1.928-0.712c-0.545-0.475-0.867-0.74-0.964-0.796
			c-0.14-0.084-0.301-0.125-0.482-0.125c-0.406,0-0.79,0.154-1.153,0.461c-0.573,0.475-1.006,1.153-1.299,2.033
			c-0.447,1.355-0.671,2.851-0.671,4.485v4.506l0.021,1.173c0,0.796,0.048,1.307,0.146,1.53c0.167,0.378,0.416,0.654,0.744,0.828
			c0.328,0.175,0.884,0.283,1.667,0.325v0.754h-10.584v-0.754c0.853-0.07,1.429-0.304,1.729-0.703
			c0.3-0.398,0.451-1.449,0.451-3.154V19.629c0-1.118-0.056-1.83-0.168-2.138c-0.14-0.391-0.342-0.677-0.607-0.859
			c-0.266-0.181-0.734-0.307-1.405-0.377v-0.775H326.758z"/>
		<path fill="#004785" d="M346.522,35.663l-6.602-15.195c-0.796-1.831-1.418-2.99-1.865-3.479c-0.322-0.363-0.796-0.608-1.425-0.734
			v-0.775h10.417v0.775c-0.657,0-1.104,0.119-1.341,0.356c-0.335,0.308-0.503,0.671-0.503,1.09c0,0.517,0.307,1.488,0.922,2.913
			l3.228,7.357l2.578-6.351c0.74-1.816,1.111-3.102,1.111-3.856c0-0.433-0.157-0.786-0.471-1.059
			c-0.315-0.272-0.87-0.422-1.667-0.451v-0.775h6.414v0.775c-0.615,0.084-1.118,0.314-1.509,0.692s-0.978,1.488-1.76,3.333
			l-6.54,15.384H346.522z"/>
		<path fill="#004785" d="M366.79,15.479v15.53c0,1.384,0.161,2.268,0.482,2.651c0.321,0.385,0.95,0.605,1.886,0.661v0.754h-10.584
			v-0.754c0.866-0.028,1.509-0.279,1.928-0.754c0.279-0.322,0.419-1.174,0.419-2.558V19.566c0-1.383-0.161-2.267-0.482-2.651
			c-0.321-0.384-0.943-0.604-1.865-0.66v-0.775H366.79z M363.855,5.985c0.908,0,1.677,0.318,2.305,0.954
			c0.629,0.636,0.943,1.401,0.943,2.295s-0.318,1.656-0.954,2.285c-0.636,0.628-1.401,0.943-2.295,0.943
			c-0.895,0-1.656-0.314-2.285-0.943c-0.629-0.629-0.943-1.391-0.943-2.285s0.314-1.659,0.943-2.295
			C362.2,6.304,362.961,5.985,363.855,5.985z"/>
		<path fill="#004785" d="M387.057,30.025l0.65,0.503c-0.922,1.733-2.072,3.022-3.448,3.867c-1.376,0.846-2.84,1.269-4.391,1.269
			c-2.613,0-4.702-0.985-6.267-2.956c-1.565-1.97-2.347-4.338-2.347-7.104c0-2.669,0.712-5.017,2.138-7.042
			c1.719-2.445,4.087-3.667,7.105-3.667c2.025,0,3.636,0.51,4.831,1.53c1.195,1.02,1.792,2.159,1.792,3.416
			c0,0.797-0.241,1.433-0.723,1.907c-0.482,0.475-1.114,0.713-1.896,0.713c-0.825,0-1.506-0.272-2.043-0.817
			c-0.538-0.545-0.87-1.516-0.996-2.913c-0.084-0.881-0.287-1.495-0.608-1.845c-0.322-0.349-0.699-0.524-1.132-0.524
			c-0.67,0-1.244,0.356-1.719,1.069c-0.727,1.076-1.089,2.725-1.089,4.946c0,1.845,0.293,3.609,0.88,5.292
			c0.587,1.684,1.39,2.938,2.41,3.762c0.769,0.601,1.677,0.901,2.725,0.901c0.685,0,1.334-0.161,1.949-0.482
			S386.218,30.919,387.057,30.025z"/>
		<path fill="#004785" d="M406.716,24.576h-10.752c0.126,2.599,0.817,4.653,2.075,6.162c0.964,1.16,2.124,1.739,3.479,1.739
			c0.838,0,1.6-0.234,2.285-0.702c0.685-0.468,1.418-1.31,2.2-2.525l0.713,0.461c-1.062,2.166-2.236,3.699-3.521,4.6
			c-1.286,0.901-2.774,1.352-4.464,1.352c-2.906,0-5.107-1.118-6.602-3.354c-1.202-1.803-1.802-4.038-1.802-6.707
			c0-3.27,0.884-5.872,2.651-7.808c1.767-1.935,3.838-2.902,6.214-2.902c1.983,0,3.706,0.814,5.166,2.441
			C405.818,18.962,406.604,21.376,406.716,24.576z M401.56,23.171c0-2.249-0.123-3.793-0.367-4.632
			c-0.245-0.838-0.625-1.474-1.143-1.907c-0.293-0.251-0.685-0.377-1.174-0.377c-0.726,0-1.32,0.356-1.781,1.069
			c-0.825,1.244-1.237,2.948-1.237,5.114v0.733H401.56z"/>
	</g>
</g>
</svg>
